<?xml version="1.0" encoding="UTF-8" standalone="no"?>
<!-- Created with Inkscape (http://www.inkscape.org/) -->

<svg
   xmlns:dc="http://purl.org/dc/elements/1.1/"
   xmlns:cc="http://creativecommons.org/ns#"
   xmlns:rdf="http://www.w3.org/1999/02/22-rdf-syntax-ns#"
   xmlns:svg="http://www.w3.org/2000/svg"
   xmlns="http://www.w3.org/2000/svg"
   xmlns:sodipodi="http://sodipodi.sourceforge.net/DTD/sodipodi-0.dtd"
   xmlns:inkscape="http://www.inkscape.org/namespaces/inkscape"
   width="987"
   height="542"
   viewBox="0 0 261.14374 143.40417"
   version="1.1"
   id="svg8"
   inkscape:version="0.92.3 (2405546, 2018-03-11)"
   sodipodi:docname="insideTower.svg"
   inkscape:export-filename="C:\Users\kaioe\Desktop\insideTowerD6.png"
   inkscape:export-xdpi="96"
   inkscape:export-ydpi="96">
  <defs
     id="defs2" />
  <sodipodi:namedview
     id="base"
     pagecolor="#ffffff"
     bordercolor="#666666"
     borderopacity="1.0"
     inkscape:pageopacity="0.0"
     inkscape:pageshadow="2"
     inkscape:zoom="0.98994949"
     inkscape:cx="570.48104"
     inkscape:cy="267.08714"
     inkscape:document-units="mm"
     inkscape:current-layer="layer1"
     showgrid="true"
     units="px"
     inkscape:window-width="1366"
     inkscape:window-height="705"
     inkscape:window-x="-8"
     inkscape:window-y="-8"
     inkscape:window-maximized="1">
    <inkscape:grid
       type="xygrid"
       id="grid838" />
  </sodipodi:namedview>
  <metadata
     id="metadata5">
    <rdf:RDF>
      <cc:Work
         rdf:about="">
        <dc:format>image/svg+xml</dc:format>
        <dc:type
           rdf:resource="http://purl.org/dc/dcmitype/StillImage" />
        <dc:title />
      </cc:Work>
    </rdf:RDF>
  </metadata>
  <g
     inkscape:label="Camada 1"
     inkscape:groupmode="layer"
     id="layer1"
     transform="translate(0,-153.59581)">
    <path
       style="fill:#6c5d53;stroke:none;stroke-width:0.26458332px;stroke-linecap:butt;stroke-linejoin:miter;stroke-opacity:1"
       d="m 0,249.37498 h 264.58333 v 52.91666 H 0 Z"
       id="path840"
       inkscape:connector-curvature="0" />
    <path
       style="fill:#666666;stroke:none;stroke-width:0.27889532px;stroke-linecap:butt;stroke-linejoin:miter;stroke-opacity:1"
       d="M 0,143.54164 V 249.37498 H 264.58333 V 143.54164 Z"
       id="path842"
       inkscape:connector-curvature="0" />
    <ellipse
       style="fill:#0000ff;fill-opacity:1;stroke:#00fbfb;stroke-width:3.24265075;stroke-miterlimit:4;stroke-dasharray:none;stroke-opacity:0.33165828"
       id="path1009-7"
       cx="-41.575222"
       cy="273.12466"
       rx="8.7787905"
       ry="9.4688272"
       transform="matrix(0.96876369,-0.24798571,0.21942849,0.97562859,0,0)" />
    <ellipse
       style="fill:#0000ff;fill-opacity:1;stroke:#00fbfb;stroke-width:3.24265075;stroke-miterlimit:4;stroke-dasharray:none;stroke-opacity:0.33165828"
       id="path1009-7-5"
       cx="-4.1109734"
       cy="283.42218"
       rx="8.7787905"
       ry="9.4688272"
       transform="matrix(0.96876369,-0.24798571,0.21942849,0.97562859,0,0)" />
    <ellipse
       style="fill:#0000ff;fill-opacity:1;stroke:#00fbfb;stroke-width:3.24265075;stroke-miterlimit:4;stroke-dasharray:none;stroke-opacity:0.33165828"
       id="path1009-7-6"
       cx="39.339027"
       cy="294.85373"
       rx="8.7787905"
       ry="9.4688272"
       transform="matrix(0.96876369,-0.24798571,0.21942849,0.97562859,0,0)" />
    <ellipse
       style="fill:#0000ff;fill-opacity:1;stroke:#00fbfb;stroke-width:3.24265075;stroke-miterlimit:4;stroke-dasharray:none;stroke-opacity:0.33165828"
       id="path1009-7-0"
       cx="83.978775"
       cy="306.20029"
       rx="8.7787905"
       ry="9.4688272"
       transform="matrix(0.96876369,-0.24798571,0.21942849,0.97562859,0,0)" />
    <ellipse
       style="fill:#0000ff;fill-opacity:1;stroke:#00fbfb;stroke-width:3.24265075;stroke-miterlimit:4;stroke-dasharray:none;stroke-opacity:0.33165828"
       id="path1009-7-8"
       cx="128.33257"
       cy="317.08673"
       rx="8.7787905"
       ry="9.4688272"
       transform="matrix(0.96876369,-0.24798571,0.21942849,0.97562859,0,0)" />
    <ellipse
       style="fill:#0000ff;fill-opacity:1;stroke:#00fbfb;stroke-width:3.24265075;stroke-miterlimit:4;stroke-dasharray:none;stroke-opacity:0.33165828"
       id="path1009-7-7"
       cx="171.00769"
       cy="326.77167"
       rx="8.7787905"
       ry="9.4688272"
       transform="matrix(0.96876369,-0.24798571,0.21942849,0.97562859,0,0)" />
    <path
       style="fill:#aa4400;stroke:#000000;stroke-width:0.26458332px;stroke-linecap:butt;stroke-linejoin:miter;stroke-opacity:1;fill-opacity:1"
       d="m 31.750001,196.45831 v 15.875 h 5.291666 v -15.875 z"
       id="path1555"
       inkscape:connector-curvature="0" />
    <path
       style="fill:#ff0002;stroke:#f69700;stroke-width:0.26458332px;stroke-linecap:butt;stroke-linejoin:miter;stroke-opacity:1;fill-opacity:1"
       d="m 25.929166,188.52083 c -0.199127,5.4445 -0.955145,7.55952 4.535715,7.55952 6.796696,0 12.473212,3.36625 12.473212,-7.55952 0,-0.70258 2.15238,-5.02917 1.13393,-6.04762 -2.088819,-2.08882 -3.734779,1.42194 -4.157739,2.26786 -0.293656,0.5873 -4.327287,-5.2069 -5.669642,-4.53572 -2.762144,1.38107 -1.720763,8.4199 -3.023809,9.07143 -3.022389,1.51119 -8.522684,-7.21799 -5.291667,-0.75595 z"
       id="path1559"
       inkscape:connector-curvature="0" />
    <path
       style="fill:#ff7f2a;fill-opacity:1;stroke:#000000;stroke-width:0.2199955px;stroke-linecap:butt;stroke-linejoin:miter;stroke-opacity:1"
       d="m 102.30556,189.99074 v 9.4074 h 16.46296 v -9.4074 z"
       id="path1561"
       inkscape:connector-curvature="0" />
    <path
       style="fill:#a05a2c;stroke:#000000;stroke-width:0.2199955px;stroke-linecap:butt;stroke-linejoin:miter;stroke-opacity:1"
       d="m 118.76852,180.58334 v 28.2222 l 4.11574,4.7037 4.11574,-4.7037 v -28.2222 l -4.11574,-4.7037 z"
       id="path1563"
       inkscape:connector-curvature="0" />
    <path
       style="fill:#e3dbdb;fill-opacity:1;stroke:#000000;stroke-width:0.2199955px;stroke-linecap:butt;stroke-linejoin:miter;stroke-opacity:1"
       d="m 127,187.63888 h 37.04167 l 12.34722,4.7037 -12.34722,9.4074 H 127 Z"
       id="path1565"
       inkscape:connector-curvature="0" />
    <ellipse
       style="fill:#8435b6;fill-opacity:1;stroke:#000000;stroke-width:0.39661554;stroke-miterlimit:4;stroke-dasharray:none;stroke-opacity:1"
       id="path1569"
       cx="122.59028"
       cy="184.61508"
       rx="2.0578701"
       ry="2.35185" />
    <ellipse
       cy="194.35847"
       cx="122.88426"
       id="circle1573"
       style="fill:#8435b6;fill-opacity:1;stroke:#000000;stroke-width:0.39661554;stroke-miterlimit:4;stroke-dasharray:none;stroke-opacity:1"
       rx="2.0578701"
       ry="2.35185" />
    <ellipse
       style="fill:#8435b6;fill-opacity:1;stroke:#000000;stroke-width:0.39661554;stroke-miterlimit:4;stroke-dasharray:none;stroke-opacity:1"
       id="circle1575"
       cx="122.88426"
       cy="204.10184"
       rx="2.0578701"
       ry="2.35185" />
    <path
       style="fill:none;stroke:#000000;stroke-width:0.26458332px;stroke-linecap:butt;stroke-linejoin:miter;stroke-opacity:1"
       d="m 104.51042,189.84373 0,9.525"
       id="path1609"
       inkscape:connector-curvature="0"
       sodipodi:nodetypes="cc" />
    <path
       inkscape:connector-curvature="0"
       id="path1611"
       d="m 105.83333,189.84373 0,9.525"
       style="fill:#ff9955;stroke:#000000;stroke-width:0.26458332px;stroke-linecap:butt;stroke-linejoin:miter;stroke-opacity:1"
       sodipodi:nodetypes="cc" />
    <path
       style="fill:#ff9955;fill-opacity:1;stroke:#000000;stroke-width:0.16096738;stroke-miterlimit:4;stroke-dasharray:none;stroke-opacity:1"
       d="m 395.58243,155.33177 v -17.32143 h 1.91964 1.91964 v 17.32143 17.32143 h -1.91964 -1.91964 z"
       id="path1613"
       inkscape:connector-curvature="0"
       transform="matrix(0.26458333,0,0,0.26458333,0,153.59581)" />
    <rect
       style="fill:none;fill-opacity:1;stroke:#93640a;stroke-width:1.5240278;stroke-miterlimit:4;stroke-dasharray:none;stroke-opacity:1"
       id="rect1615"
       width="46.502476"
       height="21.357109"
       x="80.878593"
       y="296.76993"
       transform="matrix(0.86814735,-0.49630653,0.50370283,0.86387699,0,0)" />
    <g
       id="g1662"
       style="fill:none;stroke:#ee0000;stroke-width:1.10000002;stroke-miterlimit:4;stroke-dasharray:none;stroke-opacity:1"
       transform="matrix(0.60609913,-0.3195251,0.34993149,0.55343371,-42.796373,201.785)">
      <path
         inkscape:connector-curvature="0"
         id="path1627"
         d="m 317.5,217.57025 c 0.82158,2.35326 0.90714,4.46184 0.90714,6.95476 0,2.26359 0.30238,4.63503 0.30238,6.95476 0,0.7338 -1.12363,1.5978 -0.60477,2.11667 2.4231,2.42308 11.53407,-6.21923 9.97858,-10.88571 -0.92284,-2.76854 -9.27871,-4.27072 -10.58333,-5.14048 z"
         style="fill:none;stroke:#ee0000;stroke-width:1.10000002;stroke-linecap:butt;stroke-linejoin:miter;stroke-miterlimit:4;stroke-dasharray:none;stroke-opacity:1" />
      <path
         inkscape:connector-curvature="0"
         id="path1629"
         d="m 330.2,234.50358 c 3.00748,-5.01246 1.40197,-11.28384 4.23333,-16.93333 1.61914,-2.47769 7.1917,16.94576 8.16429,14.51428 0.2277,-0.56924 0.20159,-1.20952 0.30238,-1.81428"
         style="fill:none;stroke:#ee0000;stroke-width:1.10000002;stroke-linecap:butt;stroke-linejoin:miter;stroke-miterlimit:4;stroke-dasharray:none;stroke-opacity:1" />
      <path
         inkscape:connector-curvature="0"
         id="path1631"
         d="m 332.31666,224.97858 c 0.99788,-0.39847 5.57356,-1.17108 6.35,0"
         style="fill:none;stroke:#ee0000;stroke-width:1.10000002;stroke-linecap:butt;stroke-linejoin:miter;stroke-miterlimit:4;stroke-dasharray:none;stroke-opacity:1" />
      <path
         inkscape:connector-curvature="0"
         id="path1635"
         d="m 347.13333,231.32858 c -0.15617,-0.46806 0.35861,-12.95111 0.95525,-13.54775 0.7925,-0.7925 2.5059,6.66668 2.67269,7.05591 0.57089,1.33206 0.76759,3.05469 1.60363,4.16941 0.35393,0.4719 1.33824,1.60362 0.74835,1.60362 -0.48875,0 1.258,-7.16772 1.49672,-7.80428 0.33966,-0.90574 0.10033,-4.7887 0.99003,-4.17691"
         style="fill:none;stroke:#ee0000;stroke-width:1.10000002;stroke-linecap:butt;stroke-linejoin:miter;stroke-miterlimit:4;stroke-dasharray:none;stroke-opacity:1" />
      <path
         inkscape:connector-curvature="0"
         id="path1637"
         d="m 364.06666,217.57025 c -7.2296,-0.13286 -7.41381,14.60361 0.80645,11.86352 0.71156,-0.23718 -0.39372,-4.38321 0,-4.38321 0.33227,0 -2.4025,0.52217 -2.92311,-0.072"
         style="fill:none;stroke:#ee0000;stroke-width:1.10000002;stroke-linecap:butt;stroke-linejoin:miter;stroke-miterlimit:4;stroke-dasharray:none;stroke-opacity:1" />
      <path
         inkscape:connector-curvature="0"
         id="path1641"
         d="m 367.24166,217.57025 c -0.19958,1.47993 0.15215,2.84912 0.41106,4.27308 0.22284,1.22563 -0.0381,6.37634 0.53454,6.949 0.43781,0.43782 3.34571,-0.11744 3.95559,-0.32072 0.53229,-0.17744 2.50234,0.38656 1.44881,-0.31803"
         style="fill:none;stroke:#ee0000;stroke-width:1.10000002;stroke-linecap:butt;stroke-linejoin:miter;stroke-miterlimit:4;stroke-dasharray:none;stroke-opacity:1" />
      <path
         inkscape:connector-curvature="0"
         id="path1643"
         d="m 367.24166,223.92025 c 1.45724,-0.79372 4.60308,0.10265 5.29167,-1.05833"
         style="fill:none;stroke:#ee0000;stroke-width:1.10000002;stroke-linecap:butt;stroke-linejoin:miter;stroke-miterlimit:4;stroke-dasharray:none;stroke-opacity:1" />
      <path
         inkscape:connector-curvature="0"
         id="path1647"
         d="m 375.70833,228.15358 c 0.16567,0.10601 0.31597,0.24115 0.49701,0.31803 0.1312,0.0558 0,-0.28509 0,-0.42764 0,-0.56152 -0.21382,-1.53723 -0.21382,-2.56578 0,-1.69079 0.22284,-3.56718 0,-5.23849 -0.11932,-0.895 -0.27919,-1.75814 -0.28319,-2.66945 3.64533,-0.0877 5.79016,2.08026 3.06281,4.80761 -0.76193,0.76193 -2.83561,-0.37162 -3.52796,0.32073 -0.0761,0.0761 2.53938,2.55698 2.88651,2.67269 1.06251,0.35417 1.76581,3.45997 2.87031,2.7823"
         style="fill:none;stroke:#ee0000;stroke-width:1.10000002;stroke-linecap:butt;stroke-linejoin:miter;stroke-miterlimit:4;stroke-dasharray:none;stroke-opacity:1" />
      <path
         inkscape:connector-curvature="0"
         id="path1651"
         d="m 367.24166,217.57025 c 1.39828,-0.37452 3.97061,0.18797 4.23334,0"
         style="fill:none;stroke:#ee0000;stroke-width:1.10000002;stroke-linecap:butt;stroke-linejoin:miter;stroke-miterlimit:4;stroke-dasharray:none;stroke-opacity:1" />
    </g>
    <g
       id="g943"
       transform="translate(180.18156,0.79374667)">
      <ellipse
         ry="0.32615629"
         rx="0.27738634"
         cy="247.61073"
         cx="64.282707"
         id="path893"
         style="fill:none;fill-opacity:1;stroke:#060000;stroke-width:0.11509832;stroke-miterlimit:4;stroke-dasharray:none;stroke-opacity:1" />
      <g
         id="g927">
        <path
           style="fill:none;stroke:#000000;stroke-width:0.17197916px;stroke-linecap:butt;stroke-linejoin:miter;stroke-opacity:1"
           d="m 63.499999,246.86143 c 1.405078,-0.0367 1.919162,0.95958 3.439584,1.7198 l -2.38125,0.26458"
           id="path887"
           inkscape:connector-curvature="0"
           sodipodi:nodetypes="ccc" />
        <path
           style="fill:none;stroke:#000000;stroke-width:0.16500001;stroke-linecap:butt;stroke-linejoin:miter;stroke-miterlimit:4;stroke-dasharray:none;stroke-opacity:1"
           d="m 63.499999,246.99373 c -0.269203,-0.50187 -0.860589,-0.86743 -1.242904,-1.32621 -0.817078,-0.98049 -0.08584,1.76198 -0.08001,2.11996"
           id="path891"
           inkscape:connector-curvature="0" />
        <path
           style="fill:none;stroke:#000000;stroke-width:0.16500001;stroke-linecap:butt;stroke-linejoin:miter;stroke-miterlimit:4;stroke-dasharray:none;stroke-opacity:1"
           d="m 64.558333,248.84581 c -0.59544,0.089 -1.59003,0.34077 -2.116667,0"
           id="path895"
           inkscape:connector-curvature="0" />
        <path
           style="fill:none;stroke:#000000;stroke-width:0.16500001;stroke-linecap:butt;stroke-linejoin:miter;stroke-miterlimit:4;stroke-dasharray:none;stroke-opacity:1"
           d="m 61.912499,247.25831 c -1.568545,-0.5746 -3.334308,1.02704 -4.497916,0.52917"
           id="path901"
           inkscape:connector-curvature="0" />
        <path
           style="fill:none;stroke:#000000;stroke-width:0.16500001;stroke-linecap:butt;stroke-linejoin:miter;stroke-miterlimit:4;stroke-dasharray:none;stroke-opacity:1"
           d="m 57.414583,247.78748 c -1.371169,-0.94516 -2.004722,1.78333 -2.910417,1.5875"
           id="path903"
           inkscape:connector-curvature="0" />
        <path
           style="fill:none;stroke:#000000;stroke-width:0.16500001;stroke-linecap:butt;stroke-linejoin:miter;stroke-miterlimit:4;stroke-dasharray:none;stroke-opacity:1"
           d="m 57.414583,247.78748 c 0.05051,2.78745 0.714414,1.70456 2.38125,2.11666"
           id="path907"
           inkscape:connector-curvature="0" />
        <path
           style="fill:none;stroke:#000000;stroke-width:0.16500001;stroke-linecap:butt;stroke-linejoin:miter;stroke-miterlimit:4;stroke-dasharray:none;stroke-opacity:1"
           d="m 57.679166,249.11039 c 1.410224,-0.94319 4.779973,1.18861 5.027083,0"
           id="path909"
           inkscape:connector-curvature="0" />
        <path
           style="fill:none;stroke:#000000;stroke-width:0.16500001;stroke-linecap:butt;stroke-linejoin:miter;stroke-miterlimit:4;stroke-dasharray:none;stroke-opacity:1"
           d="m 60.854166,249.37498 c 0.46514,1.12782 1.041111,0.74414 2.116667,1.05833"
           id="path911"
           inkscape:connector-curvature="0" />
        <path
           style="fill:none;stroke:#000000;stroke-width:0.16500001;stroke-linecap:butt;stroke-linejoin:miter;stroke-miterlimit:4;stroke-dasharray:none;stroke-opacity:1"
           d="m 62.441666,249.37498 c 0.232627,0.27178 0.501809,0.22617 0.79375,0.26458"
           id="path913"
           inkscape:connector-curvature="0" />
        <path
           style="fill:none;stroke:#000000;stroke-width:0.16500001;stroke-linecap:butt;stroke-linejoin:miter;stroke-miterlimit:4;stroke-dasharray:none;stroke-opacity:1"
           d="m 58.472916,248.84581 c 0.277072,0.45937 0.374954,0.49866 0.79375,0.52917"
           id="path915"
           inkscape:connector-curvature="0" />
      </g>
    </g>
  </g>
</svg>
