<?xml version="1.0" encoding="UTF-8" standalone="no"?>
<!-- Created with Inkscape (http://www.inkscape.org/) -->

<svg
   xmlns:dc="http://purl.org/dc/elements/1.1/"
   xmlns:cc="http://creativecommons.org/ns#"
   xmlns:rdf="http://www.w3.org/1999/02/22-rdf-syntax-ns#"
   xmlns:svg="http://www.w3.org/2000/svg"
   xmlns="http://www.w3.org/2000/svg"
   xmlns:sodipodi="http://sodipodi.sourceforge.net/DTD/sodipodi-0.dtd"
   xmlns:inkscape="http://www.inkscape.org/namespaces/inkscape"
   width="1380"
   height="650"
   viewBox="0 0 365.12499 171.97917"
   version="1.1"
   id="svg8"
   inkscape:version="0.92.3 (2405546, 2018-03-11)"
   sodipodi:docname="tower.svg"
   inkscape:export-filename="C:\Users\kaioe\Desktop\towerDone2.png"
   inkscape:export-xdpi="96"
   inkscape:export-ydpi="96">
  <defs
     id="defs2">
    <inkscape:path-effect
       effect="bspline"
       id="path-effect4742"
       is_visible="true"
       weight="33.333333"
       steps="2"
       helper_size="0"
       apply_no_weight="true"
       apply_with_weight="true"
       only_selected="false" />
    <inkscape:path-effect
       effect="bspline"
       id="path-effect4738"
       is_visible="true"
       weight="33.333333"
       steps="2"
       helper_size="0"
       apply_no_weight="true"
       apply_with_weight="true"
       only_selected="false" />
    <inkscape:path-effect
       effect="bspline"
       id="path-effect4734"
       is_visible="true"
       weight="33.333333"
       steps="2"
       helper_size="0"
       apply_no_weight="true"
       apply_with_weight="true"
       only_selected="false" />
    <inkscape:path-effect
       effect="bspline"
       id="path-effect4730"
       is_visible="true"
       weight="33.333333"
       steps="2"
       helper_size="0"
       apply_no_weight="true"
       apply_with_weight="true"
       only_selected="false" />
    <inkscape:path-effect
       effect="bspline"
       id="path-effect4726"
       is_visible="true"
       weight="33.333333"
       steps="2"
       helper_size="0"
       apply_no_weight="true"
       apply_with_weight="true"
       only_selected="false" />
    <inkscape:path-effect
       effect="spiro"
       id="path-effect4722"
       is_visible="true" />
    <inkscape:path-effect
       effect="spiro"
       id="path-effect4718"
       is_visible="true" />
  </defs>
  <sodipodi:namedview
     id="base"
     pagecolor="#ffffff"
     bordercolor="#666666"
     borderopacity="1.0"
     inkscape:pageopacity="0.70588235"
     inkscape:pageshadow="2"
     inkscape:zoom="0.30841892"
     inkscape:cx="214.32374"
     inkscape:cy="153.20454"
     inkscape:document-units="mm"
     inkscape:current-layer="layer1"
     showgrid="true"
     units="px"
     showguides="true"
     inkscape:window-width="1366"
     inkscape:window-height="705"
     inkscape:window-x="-8"
     inkscape:window-y="-8"
     inkscape:window-maximized="1">
    <inkscape:grid
       type="xygrid"
       id="grid5942"
       empspacing="40" />
  </sodipodi:namedview>
  <metadata
     id="metadata5">
    <rdf:RDF>
      <cc:Work
         rdf:about="">
        <dc:format>image/svg+xml</dc:format>
        <dc:type
           rdf:resource="http://purl.org/dc/dcmitype/StillImage" />
        <dc:title></dc:title>
      </cc:Work>
    </rdf:RDF>
  </metadata>
  <g
     inkscape:label="Camada 1"
     inkscape:groupmode="layer"
     id="layer1"
     transform="translate(0,-125.02082)"
     style="display:inline">
    <path
       style="fill:#55ff55;fill-opacity:1;stroke:none;stroke-width:1.36584973;stroke-miterlimit:4;stroke-dasharray:none;stroke-opacity:1"
       d="M 8.2360726,333.58146 V 296.43394 H 90.260481 172.2849 l 1.35995,-0.78445 c 6.03925,-3.48356 9.15607,-8.8968 10.67016,-18.53167 0.4083,-2.59823 0.48148,-5.49437 0.51,-20.17863 0.0291,-14.95979 0.0948,-17.48321 0.5168,-19.79842 0.57571,-3.15945 1.46249,-6.45625 2.20976,-8.21531 l 0.54193,-1.27566 h 7.57548 7.57549 v 34.29001 34.29001 h 86.68603 86.686 V 250.5098 204.78978 h -86.54551 -86.54553 v -7.75607 -7.75608 H 303.83959 404.1537 v 90.72567 90.72567 H 206.19489 8.2360726 Z"
       id="path6064"
       inkscape:connector-curvature="0" />
    <path
       style="fill:none;stroke:#000000;stroke-width:0.33527732px;stroke-linecap:butt;stroke-linejoin:miter;stroke-opacity:1"
       d="m -63.155781,393.44099 c 0,0 0,0 0,0"
       id="path4724"
       inkscape:connector-curvature="0"
       inkscape:path-effect="#path-effect4726"
       inkscape:original-d="m -63.155781,393.44099 c 0.0038,-0.003 0.0038,-0.003 0,0" />
    <g
       id="g4768"
       transform="matrix(0.2034766,0,0,0.24479481,65.010367,488.20133)">
      <path
         style="fill:none;stroke:#000000;stroke-width:1.18550706px;stroke-linecap:butt;stroke-linejoin:miter;stroke-opacity:1"
         d="m -208.8383,244.28077 c -18.87329,-20.40491 -54.43423,-96.16709 -59.58599,-118.4666"
         id="path4843"
         inkscape:connector-curvature="0"
         sodipodi:nodetypes="cc" />
      <path
         inkscape:original-d="m -176.66918,458.99999 c 245.614675,-109.99545 7.8345,199.76788 0,0 z"
         inkscape:connector-curvature="0"
         id="path4716"
         d="M -190.61274,459 Z"
         style="fill:none;stroke:#000000;stroke-width:0.26458332px;stroke-linecap:butt;stroke-linejoin:miter;stroke-opacity:1" />
      <path
         inkscape:original-d="m 31.176915,470.99998 c 0.0026,-0.003 0.0026,-0.003 0,0 z"
         inkscape:connector-curvature="0"
         id="path4728"
         d="m 17.233359,470.99999 c 0,0 0,0 0,0 z"
         style="fill:none;stroke:#000000;stroke-width:0.26458332px;stroke-linecap:butt;stroke-linejoin:miter;stroke-opacity:1" />
      <path
         inkscape:original-d="m 31.176915,470.99998 c 0.0026,-0.003 0.0026,-0.003 0,0 z"
         inkscape:connector-curvature="0"
         id="path4732"
         d="m 17.233359,470.99999 c 0,0 0,0 0,0 z"
         style="fill:none;stroke:#000000;stroke-width:0.26458332px;stroke-linecap:butt;stroke-linejoin:miter;stroke-opacity:1" />
      <path
         inkscape:original-d="m 31.176915,470.99998 c 0.0026,-0.003 0.0026,-0.003 0,0"
         inkscape:connector-curvature="0"
         id="path4736"
         d="m 17.233359,470.99999 c 0,0 0,0 0,0"
         style="fill:none;stroke:#000000;stroke-width:0.26458332px;stroke-linecap:butt;stroke-linejoin:miter;stroke-opacity:1" />
      <path
         inkscape:original-d="m 31.176915,470.99998 c 0.0026,-0.003 0.0026,-0.003 0,0 z"
         inkscape:connector-curvature="0"
         id="path4740"
         d="m 17.233359,470.99999 c 0,0 0,0 0,0 z"
         style="fill:none;stroke:#000000;stroke-width:0.26458332px;stroke-linecap:butt;stroke-linejoin:miter;stroke-opacity:1" />
      <path
         sodipodi:nodetypes="cc"
         inkscape:connector-curvature="0"
         id="path4754"
         d="m -180.22043,567 c 54.5596,35.18433 163.678793,35.18433 218.238398,0"
         style="fill:none;stroke:#000000;stroke-width:1.72399998;stroke-linecap:butt;stroke-linejoin:miter;stroke-miterlimit:4;stroke-dasharray:none;stroke-opacity:1" />
      <path
         inkscape:connector-curvature="0"
         id="path4756"
         d="m -180.22044,566.64996 1e-5,-293.77384"
         style="fill:none;stroke:#000000;stroke-width:1.78524244;stroke-linecap:butt;stroke-linejoin:miter;stroke-miterlimit:4;stroke-dasharray:none;stroke-opacity:1"
         sodipodi:nodetypes="cc" />
      <path
         style="fill:none;stroke:#000000;stroke-width:1.72399998;stroke-linecap:butt;stroke-linejoin:miter;stroke-miterlimit:4;stroke-dasharray:none;stroke-opacity:1"
         d="M 38.017968,567 V 272.87611"
         id="path4758"
         inkscape:connector-curvature="0"
         sodipodi:nodetypes="cc" />
      <path
         style="fill:none;stroke:#000000;stroke-width:1.72399998;stroke-linecap:butt;stroke-linejoin:miter;stroke-miterlimit:4;stroke-dasharray:none;stroke-opacity:1"
         d="m -180.22043,272.87611 c 54.5596,-35.18433 163.678798,-35.18433 218.238398,0"
         id="path4824"
         inkscape:connector-curvature="0"
         sodipodi:nodetypes="cc" />
      <path
         sodipodi:nodetypes="cc"
         inkscape:connector-curvature="0"
         id="path4826"
         d="m -210.4891,243.3105 c 67.32803,-43.41842 201.9840606,-43.41842 269.31209,0"
         style="fill:none;stroke:#000000;stroke-width:2.12746286;stroke-linecap:butt;stroke-linejoin:miter;stroke-miterlimit:4;stroke-dasharray:none;stroke-opacity:1" />
      <path
         style="fill:none;stroke:#000000;stroke-width:1.63543963;stroke-linecap:butt;stroke-linejoin:miter;stroke-miterlimit:4;stroke-dasharray:none;stroke-opacity:1"
         d="m 38.017967,272.87615 c 17.74812,-1.34203 34.049141,-8.17014 21.280714,-30.63794"
         id="path4838"
         inkscape:connector-curvature="0"
         sodipodi:nodetypes="cc" />
      <path
         sodipodi:nodetypes="cc"
         inkscape:connector-curvature="0"
         id="path4840"
         d="m -179.0453,274.91864 c -30.61557,-4.49982 -30.65904,-13.9403 -31.4485,-32.68037"
         style="fill:none;stroke:#000000;stroke-width:1.18550706px;stroke-linecap:butt;stroke-linejoin:miter;stroke-opacity:1" />
      <path
         sodipodi:nodetypes="cc"
         inkscape:connector-curvature="0"
         id="path4845"
         d="M 57.970198,244.04245 C 76.84349,223.63754 112.40444,147.87536 117.55621,125.57585"
         style="fill:none;stroke:#000000;stroke-width:1.18550706px;stroke-linecap:butt;stroke-linejoin:miter;stroke-opacity:1" />
      <path
         style="fill:none;stroke:#000000;stroke-width:2.35130215;stroke-linecap:butt;stroke-linejoin:miter;stroke-miterlimit:4;stroke-dasharray:none;stroke-opacity:1"
         d="m -239.87263,190.69846 c 82.24108,-43.41842 246.7232206,-43.41842 328.964308,0"
         id="path4847"
         inkscape:connector-curvature="0"
         sodipodi:nodetypes="cc" />
      <path
         sodipodi:nodetypes="cc"
         inkscape:connector-curvature="0"
         id="path4881"
         d="m -268.42429,125.81417 c 89.37899,-43.418417 268.13696432,-43.418417 357.515968,0"
         style="fill:none;stroke:#000000;stroke-width:2.45121694;stroke-linecap:butt;stroke-linejoin:miter;stroke-miterlimit:4;stroke-dasharray:none;stroke-opacity:1" />
    </g>
    <rect
       style="fill:#93ac9d;fill-opacity:1;stroke:#000000;stroke-width:0.89783061;stroke-miterlimit:4;stroke-dasharray:none;stroke-opacity:1"
       id="rect5961"
       width="78.677734"
       height="4.5357165"
       x="132.94878"
       y="136.43866" />
    <path
       style="fill:#536c67;fill-opacity:1;stroke:#000000;stroke-width:0.89783049;stroke-miterlimit:4;stroke-dasharray:none;stroke-opacity:1"
       d="m 132.94876,131.90283 v 9.07143 4.53571 h 8.74195 v 9.07145 72.57145 h 61.1938 v -72.57145 -9.07145 h 8.74198 v -4.53571 -9.07143 h -8.74198 v 9.07143 h -8.74196 v -9.07143 h -8.74198 v 9.07143 h -8.74197 v -9.07143 h -8.74197 v 9.07143 h -8.74196 v -9.07143 h -8.74196 v 9.07143 h -8.742 v -9.07143 z"
       id="rect5944"
       inkscape:connector-curvature="0"
       sodipodi:nodetypes="ccccccccccccccccccccccccccccc" />
    <path
       style="fill:#0073ff;fill-opacity:1;stroke:#000000;stroke-width:0.5177927;stroke-miterlimit:4;stroke-dasharray:none;stroke-opacity:1"
       d="m 159.17467,155.60707 13.11295,-4.02289 13.11293,4.02289 v 8.04577 l -26.22588,-1e-5 z"
       id="rect5967"
       inkscape:connector-curvature="0"
       sodipodi:nodetypes="cccccc" />
    <path
       style="fill:#aa4400;fill-opacity:1;stroke:#000000;stroke-width:0.89783061;stroke-miterlimit:4;stroke-dasharray:none;stroke-opacity:1"
       d="m 154.8037,209.00999 c 8.74197,-9.07141 26.22592,-9.07141 34.96788,1e-5 v 18.14287 H 154.8037 Z"
       id="rect5970"
       inkscape:connector-curvature="0"
       sodipodi:nodetypes="ccccc" />
    <ellipse
       style="fill:#ffcc00;fill-opacity:1;stroke:#000000;stroke-width:1.25471652;stroke-miterlimit:4;stroke-dasharray:none;stroke-opacity:1"
       id="path5973"
       cx="182.30969"
       cy="217.33318"
       rx="5.1625772"
       ry="3.7499988" />
    <g
       id="g6016"
       transform="matrix(1.4868235,0,0,1.0800006,-16.801212,-24.519206)">
      <g
         id="g6006">
        <g
           id="g5997">
          <g
             id="g5981">
            <path
               style="fill:none;stroke:#000000;stroke-width:0.26458332px;stroke-linecap:butt;stroke-linejoin:miter;stroke-opacity:1"
               d="m 116.41667,233.49999 c -8.53875,24.21972 -2.88558,47.36729 -10.58334,63.49999"
               id="path5975"
               inkscape:connector-curvature="0" />
            <path
               style="fill:none;stroke:#000000;stroke-width:0.26458332px;stroke-linecap:butt;stroke-linejoin:miter;stroke-opacity:1"
               d="M 137.58333,233.49999 C 131.10129,252.3096 141.91374,287.22011 127,296.99998"
               id="path5977"
               inkscape:connector-curvature="0" />
          </g>
          <g
             id="g5989">
            <path
               style="fill:none;stroke:#000000;stroke-width:0.26458332px;stroke-linecap:butt;stroke-linejoin:miter;stroke-opacity:1"
               d="M 105.83333,296.99998 H 127"
               id="path5983"
               inkscape:connector-curvature="0" />
            <path
               style="fill:none;stroke:#000000;stroke-width:0.26458332px;stroke-linecap:butt;stroke-linejoin:miter;stroke-opacity:1"
               d="m 116.41667,233.49999 h 21.16666"
               id="path5985"
               inkscape:connector-curvature="0" />
          </g>
        </g>
      </g>
    </g>
    <path
       style="fill:#ffdd55;fill-opacity:1;stroke:none;stroke-width:1.93160331;stroke-miterlimit:4;stroke-dasharray:none;stroke-opacity:1"
       d="m 141.41976,295.49101 c 4.0209,-6.84044 5.65213,-13.99171 6.93001,-30.38054 1.29311,-16.58413 3.41117,-26.77876 7.2865,-35.07112 l 0.94428,-2.02057 15.34424,-0.0755 15.34424,-0.0755 -0.57705,1.37449 c -2.14539,5.10995 -2.58991,9.90288 -2.57705,27.78604 0.0111,15.68303 -0.22669,19.75691 -1.44176,24.67968 -1.36864,5.54491 -4.61871,10.45298 -8.59491,12.97954 l -2.05958,1.30871 h -15.44792 c -14.5605,0 -15.43087,-0.029 -15.151,-0.50515 z"
       id="path6018"
       inkscape:connector-curvature="0" />
    <path
       style="fill:none;stroke:#00e200;stroke-width:0.33527732px;stroke-linecap:butt;stroke-linejoin:miter;stroke-opacity:1"
       d="m -16.801212,204.80091 v 91.44003 H 140.55427 v -68.58001 -22.86002 z"
       id="path6020"
       inkscape:connector-curvature="0" />
    <path
       style="fill:#55ff55;fill-opacity:1;stroke:none;stroke-width:2.08099103;stroke-miterlimit:4;stroke-dasharray:none;stroke-opacity:1"
       d="m -21.166667,256.32716 v -51.25614 h 80.591196 80.591191 v 51.25614 51.25616 H 59.424529 -21.166667 Z"
       id="path6022"
       inkscape:connector-curvature="0" />
    <path
       style="fill:#55ff55;fill-opacity:1;stroke:none;stroke-width:1.93160331;stroke-miterlimit:4;stroke-dasharray:none;stroke-opacity:1"
       d="m 140.83817,261.28584 -0.0276,-33.70003 h 7.59279 c 7.07519,0 7.57331,0.0344 7.30698,0.50514 -0.73651,1.30167 -2.27908,5.21044 -3.34016,8.46387 -2.46996,7.57317 -3.52182,13.85748 -4.80383,28.69998 -1.41184,16.34546 -2.57555,22.03785 -5.69441,27.85484 l -1.00599,1.87624 z"
       id="path6024"
       inkscape:connector-curvature="0" />
    <path
       style="fill:#55ff55;fill-opacity:1;stroke:none;stroke-width:0.68292487;stroke-miterlimit:4;stroke-dasharray:none;stroke-opacity:1"
       d="m 140.36999,245.30079 v -40.3622 H 88.526993 c -34.468342,0 -51.843013,-0.0342 -51.843013,-0.10204 0,-0.0678 17.421502,-0.10203 51.983511,-0.10203 h 51.983489 v 40.46426 c 0,26.90813 -0.0471,40.46426 -0.14047,40.46426 -0.0933,0 -0.14046,-13.5221 -0.14046,-40.36222 z"
       id="path6026"
       inkscape:connector-curvature="0" />
    <path
       style="fill:#55ff55;fill-opacity:1;stroke:none;stroke-width:0.68292487;stroke-miterlimit:4;stroke-dasharray:none;stroke-opacity:1"
       d="m 140.089,245.35195 v -40.31103 l -51.737625,-0.0258 -51.737642,-0.0258 51.807884,-0.0254 51.807883,-0.0254 v 40.3622 c 0,22.19922 -0.0316,40.36222 -0.0703,40.36222 -0.0387,0 -0.0702,-18.13998 -0.0702,-40.31106 z"
       id="path6028"
       inkscape:connector-curvature="0" />
    <path
       style="fill:#55ff55;fill-opacity:1;stroke:none;stroke-width:0.68292487;stroke-miterlimit:4;stroke-dasharray:none;stroke-opacity:1"
       d="m 140.35289,236.52418 -0.0523,-31.63662 -0.0712,24.74801 -0.0712,24.74799 -0.0347,-24.65486 -0.0347,-24.65486 -5.71311,-0.0676 c -3.14222,-0.0372 -21.74564,-0.0709 -41.340938,-0.0748 -19.595305,-0.004 -35.754275,-0.0467 -35.908815,-0.095 -0.157592,-0.0492 18.121419,-0.0908 41.621923,-0.0948 l 41.90292,-0.007 -0.0101,31.25393 c -0.005,17.18965 -0.0611,31.46057 -0.12292,31.71316 -0.0619,0.25258 -0.13613,-13.77724 -0.16477,-31.17738 z"
       id="path6030"
       inkscape:connector-curvature="0" />
    <path
       style="fill:#55ff55;fill-opacity:1;stroke:none;stroke-width:0.68292487;stroke-miterlimit:4;stroke-dasharray:none;stroke-opacity:1"
       d="m 140.21078,285.43338 c -0.0285,-0.12628 -0.019,-10.92994 0.0208,-24.00811 l 0.0725,-23.77849 0.0328,24.0081 c 0.018,13.20447 0.008,24.00813 -0.0208,24.00813 -0.0296,0 -0.077,-0.10339 -0.10529,-0.22963 z"
       id="path6032"
       inkscape:connector-curvature="0" />
    <path
       style="fill:#55ff55;fill-opacity:1;stroke:none;stroke-width:0.68292487;stroke-miterlimit:4;stroke-dasharray:none;stroke-opacity:1"
       d="m 140.6325,279.66736 c -0.0101,-3.29761 -0.0651,-5.83492 -0.12196,-5.63846 -0.0568,0.19645 -0.11185,-1.56014 -0.12197,-3.90356 -0.0111,-2.76274 0.0305,-4.26074 0.12113,-4.26074 0.0922,0 0.14005,-10.38002 0.1409,-30.53137 8e-4,-16.79226 0.0328,-30.55419 0.0712,-30.58207 0.0383,-0.0278 0.0697,18.16587 0.0697,40.43057 0,22.26471 -0.0317,40.48128 -0.0704,40.48128 -0.0387,0 -0.0785,-2.69805 -0.0887,-5.99565 z"
       id="path6034"
       inkscape:connector-curvature="0" />
    <path
       style="fill:#55ff55;fill-opacity:1;stroke:none;stroke-width:0.68292487;stroke-miterlimit:4;stroke-dasharray:none;stroke-opacity:1"
       d="m 140.29187,251.06683 c 0,-1.71195 0.0194,-2.4123 0.0427,-1.55632 0.0236,0.85597 0.0236,2.25666 0,3.11263 -0.0235,0.85598 -0.0427,0.15563 -0.0427,-1.55631 z"
       id="path6036"
       inkscape:connector-curvature="0" />
    <path
       style="fill:#55ff55;fill-opacity:1;stroke:none;stroke-width:0.68292487;stroke-miterlimit:4;stroke-dasharray:none;stroke-opacity:1"
       d="m 140.64025,280.43275 c -0.005,-2.37146 -0.0501,-4.4036 -0.0983,-4.51587 -0.048,-0.11226 -0.12224,-15.47387 -0.16488,-34.13693 l -0.0775,-33.93284 -0.0708,22.65592 -0.0708,22.6559 -0.0347,-24.0424 -0.0347,-24.0424 -8.9566,-0.0676 c -4.92615,-0.0372 -23.56118,-0.0709 -41.411186,-0.075 -17.850014,-0.004 -32.581018,-0.0468 -32.735564,-0.095 -0.157588,-0.0492 18.148499,-0.0909 41.68314,-0.0949 l 41.96412,-0.007 0.0542,1.09708 c 0.082,1.65923 0.11572,78.91297 0.0346,78.91297 -0.0388,0 -0.0755,-1.9403 -0.0814,-4.31177 z"
       id="path6038"
       inkscape:connector-curvature="0" />
    <path
       style="fill:#55ff55;fill-opacity:1;stroke:none;stroke-width:0.68292487;stroke-miterlimit:4;stroke-dasharray:none;stroke-opacity:1"
       d="m 140.26341,281.73394 c -0.0192,-1.17872 -0.0613,-8.36584 -0.0932,-15.97139 -0.0484,-11.43913 -0.0366,-12.70863 0.0678,-7.34786 0.0693,3.56422 0.11155,10.75135 0.0932,15.9714 -0.0183,5.22003 -0.0489,8.52657 -0.0679,7.34785 z"
       id="path6040"
       inkscape:connector-curvature="0" />
    <path
       style="fill:#55ff55;fill-opacity:1;stroke:none;stroke-width:0.68292487;stroke-miterlimit:4;stroke-dasharray:none;stroke-opacity:1"
       d="M 36.68398,245.40285 V 205.1427 l 51.597151,-0.0203 c 30.816419,-0.0121 46.844009,-0.0473 39.795459,-0.0871 -6.49089,-0.0368 -24.00372,-0.0743 -38.917364,-0.0832 -17.565756,-0.0107 -27.041501,-0.0513 -26.90498,-0.11538 0.134755,-0.0633 14.307511,-0.0995 39.303744,-0.10049 l 39.09299,-0.001 0.015,4.31177 c 0.008,2.37148 0.0255,4.5414 0.0383,4.82204 0.0125,0.28065 0.0378,3.48385 0.0553,7.11823 l 0.032,6.60798 6.0062,0.005 c 5.64795,0.004 8.63171,0.0822 8.83459,0.22957 0.0485,0.0353 -0.1698,0.62837 -0.48522,1.31803 -1.70439,3.72662 -3.66285,9.63211 -4.71408,14.21473 -1.19818,5.22334 -1.84531,10.11144 -2.96559,22.40076 -0.91997,10.09228 -1.76733,16.37747 -2.61067,19.36469 l -0.15126,0.53576 h -1.88675 -1.88672 l -0.0348,-27.68204 -0.0347,-27.68205 -0.0711,26.17675 c -0.0391,14.39722 -0.0951,24.79904 -0.12445,23.11517 -0.0294,-1.68389 -0.0965,-4.14084 -0.1492,-5.45988 -0.086,-2.15308 -0.0984,-1.91923 -0.12183,2.28771 -0.0143,2.57727 -0.0713,4.65303 -0.12682,4.61279 -0.0553,-0.0402 -0.13833,-17.16612 -0.18432,-38.0575 l -0.0836,-37.98433 -0.0264,40.3367 -0.0263,40.33668 H 88.316252 36.683982 Z m 103.77907,25.94713 c -0.0389,-0.0702 -0.071,-0.0127 -0.071,0.12756 0,0.14033 0.0318,0.19774 0.071,0.12758 0.039,-0.0702 0.039,-0.18497 0,-0.25514 z m -0.12821,-42.46245 c -0.02,-5.90315 -0.0364,-1.04301 -0.0364,10.80031 0,11.84334 0.0163,16.67317 0.0364,10.733 0.0199,-5.94018 0.0199,-15.63017 0,-21.53331 z"
       id="path6042"
       inkscape:connector-curvature="0" />
    <path
       style="fill:#55ff55;fill-opacity:1;stroke:none;stroke-width:0.68292487;stroke-miterlimit:4;stroke-dasharray:none;stroke-opacity:1"
       d="M 36.68398,245.40285 V 205.1427 l 45.204576,-0.0198 c 24.862524,-0.0109 42.043424,-0.0504 38.179784,-0.0878 -3.86364,-0.0374 -19.57461,-0.0776 -34.913253,-0.0894 -15.338644,-0.0118 -28.014894,-0.0609 -28.169441,-0.10915 -0.157588,-0.0492 18.143642,-0.0908 41.67216,-0.0949 l 41.953154,-0.007 0.0904,0.6273 c 0.0497,0.34501 0.0904,5.48851 0.0904,11.43 v 10.80272 l 5.93595,0.006 c 5.6096,0.005 8.70506,0.0838 8.89959,0.22497 0.0475,0.0345 -0.23506,0.78894 -0.62803,1.67647 -1.80729,4.08189 -3.72905,10.00105 -4.71527,14.52345 -1.10838,5.0825 -1.65697,9.32047 -2.82052,21.78846 -0.9962,10.67487 -1.75161,16.27104 -2.60712,19.31365 l -0.15063,0.53577 h -1.88674 -1.88675 l -0.0347,-21.04856 -0.0347,-21.04856 -0.0713,20.61484 c -0.0393,11.33816 -0.0954,19.14525 -0.12488,17.34912 -0.0295,-1.79615 -0.0968,-4.18421 -0.14927,-5.30679 l -0.0958,-2.04108 -0.0592,3.21469 c -0.0538,2.92031 -0.0659,2.69137 -0.13195,-2.50031 -0.0401,-3.14326 -0.0887,-18.29471 -0.10808,-33.66992 -0.0195,-15.3752 -0.0664,-27.97754 -0.10445,-28.00521 -0.038,-0.0277 -0.0692,16.26041 -0.0692,36.19574 v 36.24604 H 88.316231 36.683965 Z m 103.65089,-11.80489 c -0.0207,-2.99319 -0.0377,-0.57422 -0.0377,5.37552 -1e-5,5.94972 0.0169,8.39869 0.0377,5.44215 0.0207,-2.95652 0.0207,-7.82448 1e-5,-10.81767 z"
       id="path6044"
       inkscape:connector-curvature="0" />
    <path
       style="fill:#55ff55;fill-opacity:1;stroke:none;stroke-width:0.68292487;stroke-miterlimit:4;stroke-dasharray:none;stroke-opacity:1"
       d="M 36.68398,245.40285 V 205.1427 l 32.981431,-0.012 c 18.139785,-0.006 33.613659,-0.045 34.386379,-0.0853 0.77273,-0.0403 -9.374586,-0.0815 -22.549593,-0.0917 -15.181775,-0.0116 -24.031747,-0.0546 -24.165309,-0.11732 -0.136325,-0.064 14.5305,-0.0995 41.531654,-0.10048 l 41.742418,-10e-4 0.0904,0.62729 c 0.0497,0.34501 0.0904,5.48852 0.0904,11.43 v 10.80272 l 6.21695,0.008 c 6.05699,0.008 8.40658,0.0685 8.61865,0.22265 0.0571,0.0415 0.0365,0.2248 -0.046,0.40716 -1.95394,4.31957 -3.77767,9.58861 -4.88195,14.10481 -1.25502,5.13266 -1.93662,9.91646 -2.9523,20.72091 -1.00669,10.7086 -1.32928,13.57417 -1.98184,17.60424 -0.31384,1.93821 -0.75352,4.09898 -0.97079,4.77102 -0.0725,0.2241 -0.11974,0.22962 -1.96827,0.22962 h -1.89403 l -0.0345,-14.21097 -0.0345,-14.21096 -0.0717,13.57313 c -0.0396,7.46522 -0.096,12.28726 -0.12558,10.71562 -0.0295,-1.57162 -0.0967,-3.61524 -0.14925,-4.54138 -0.0927,-1.63405 -0.0964,-1.60108 -0.12113,1.11409 -0.0143,1.53888 -0.0717,2.76444 -0.12821,2.72346 -0.0564,-0.0409 -0.1392,-13.60773 -0.18404,-30.14834 l -0.0814,-30.07384 -0.0267,32.5296 -0.0267,32.52959 H 88.316252 36.683986 Z"
       id="path6046"
       inkscape:connector-curvature="0" />
    <path
       style="fill:#55ff55;fill-opacity:1;stroke:none;stroke-width:0.68292487;stroke-miterlimit:4;stroke-dasharray:none;stroke-opacity:1"
       d="M 36.68398,245.40285 V 205.1427 l 26.799606,-0.0142 c 14.739779,-0.008 28.633085,-0.0451 30.873991,-0.0826 2.335681,-0.0392 -4.720484,-0.0768 -16.535113,-0.0879 -13.55923,-0.0127 -20.639197,-0.0543 -20.69632,-0.1214 -0.05781,-0.0679 13.878372,-0.10203 41.701448,-0.10203 h 41.788268 l 0.0878,0.31892 c 0.0483,0.1754 0.0878,5.3189 0.0878,11.42999 v 11.1111 l 6.28721,0.007 c 6.06134,0.007 8.33262,0.0667 8.55044,0.22498 0.0566,0.0411 -0.22261,0.82084 -0.62045,1.73271 -1.66892,3.82522 -3.23298,8.47815 -4.29659,12.78179 -1.27873,5.17415 -1.93353,9.86884 -3.10305,22.2477 -0.74239,7.85775 -1.21386,12.08332 -1.69665,15.20599 -0.33859,2.19003 -0.98255,5.42412 -1.13894,5.7202 -0.0629,0.11897 -0.44619,0.14789 -1.9598,0.14789 h -1.88167 l -0.0342,-10.17985 -0.0342,-10.17985 -0.0725,9.64407 c -0.0398,5.30423 -0.0954,8.473 -0.12363,7.0417 -0.0282,-1.4313 -0.0957,-3.24531 -0.15018,-4.03111 l -0.0989,-1.42876 -0.0244,2.18565 c -0.0125,1.20211 -0.0697,2.15267 -0.12515,2.11236 -0.0554,-0.0403 -0.13848,-10.50718 -0.18437,-23.25972 l -0.0834,-23.18644 -0.0263,25.64098 -0.0263,25.64097 H 88.316327 36.684059 Z"
       id="path6048"
       inkscape:connector-curvature="0" />
    <path
       style="fill:#55ff55;fill-opacity:1;stroke:none;stroke-width:0.68292487;stroke-miterlimit:4;stroke-dasharray:none;stroke-opacity:1"
       d="M 36.68398,245.40285 V 205.1427 l 20.758281,-0.0141 c 11.417051,-0.007 23.856215,-0.0447 27.642583,-0.0823 5.55392,-0.055 3.531201,-0.0735 -10.466953,-0.095 -9.543189,-0.0148 -17.477698,-0.0664 -17.632245,-0.11461 -0.157588,-0.0492 18.145251,-0.0908 41.675788,-0.095 l 41.956776,-0.007 0.0847,0.22962 c 0.0467,0.1263 0.0856,5.26979 0.0866,11.43001 l 0.001,11.20038 6.2872,0.007 c 6.05903,0.007 8.33265,0.0667 8.55018,0.22478 0.0564,0.041 -0.19017,0.75184 -0.54804,1.57963 -2.437,5.63701 -4.31034,11.80816 -5.35854,17.65192 -0.74098,4.13107 -1.21321,8.10201 -2.188,18.39831 -0.67015,7.07859 -0.87659,8.98851 -1.34576,12.45054 -0.42934,3.16813 -1.11761,6.87073 -1.40856,7.57748 -0.0654,0.15858 -0.28507,0.1786 -1.96075,0.1786 H 140.931 l -0.0336,-7.47543 -0.0338,-7.47543 -0.0731,7.0417 c -0.0402,3.87294 -0.0968,5.98545 -0.12599,4.69447 -0.029,-1.29098 -0.0964,-2.89833 -0.14956,-3.57188 l -0.0969,-1.22463 -0.0248,1.62434 c -0.0125,0.8934 -0.0685,1.59242 -0.12238,1.55338 -0.0538,-0.039 -0.13695,-8.16379 -0.18496,-18.05499 l -0.0873,-17.984 -0.0258,20.43623 -0.0258,20.43624 H 88.316242 36.683976 Z"
       id="path6050"
       inkscape:connector-curvature="0" />
    <path
       style="fill:#55ff55;fill-opacity:1;stroke:none;stroke-width:0.68292487;stroke-miterlimit:4;stroke-dasharray:none;stroke-opacity:1"
       d="M 36.68398,245.40285 V 205.1427 l 15.700428,-0.0147 c 8.635229,-0.008 19.809929,-0.045 24.832665,-0.0819 l 9.132227,-0.0672 -14.541326,-0.0272 c -7.997734,-0.015 -14.667781,-0.0667 -14.822328,-0.11499 -0.157588,-0.0492 18.145849,-0.0908 41.677149,-0.095 38.136505,-0.006 41.965895,0.007 42.043415,0.15426 0.047,0.0888 0.0854,5.23229 0.0854,11.43 v 11.26858 l 6.35743,0.006 c 6.03703,0.006 8.25858,0.0649 8.47891,0.22498 0.054,0.0392 -0.32393,1.07491 -0.83975,2.30161 -1.75167,4.16578 -3.37223,9.20708 -4.36913,13.59156 -1.12956,4.96799 -1.69757,9.3023 -2.95571,22.55385 -0.54433,5.73319 -1.06937,10.4722 -1.40766,12.70569 -0.46291,3.05613 -1.01418,5.86697 -1.27597,6.50591 -0.0651,0.15859 -0.28458,0.1786 -1.96039,0.1786 h -1.88724 l -0.0331,-5.33231 -0.033,-5.3323 -0.0744,4.89858 c -0.049,3.22407 -0.0915,4.18342 -0.1246,2.80646 -0.0276,-1.15065 -0.0951,-2.57429 -0.15,-3.16365 l -0.0997,-1.07156 -0.0236,1.21614 c -0.0125,0.66887 -0.0666,1.18486 -0.11918,1.14665 -0.0526,-0.0382 -0.13613,-6.23414 -0.18536,-13.76873 l -0.0898,-13.69926 -0.0254,16.14999 -0.0254,16.14999 H 88.316252 36.683986 Z"
       id="path6052"
       inkscape:connector-curvature="0" />
    <path
       style="fill:#55ff55;stroke:none;stroke-width:0.33527732px;stroke-linecap:butt;stroke-linejoin:miter;stroke-opacity:1"
       d="m 203.49646,204.80091 v 91.44003 H 376.5875 v -91.44003 z"
       id="path6062"
       inkscape:connector-curvature="0" />
    <path
       style="fill:#00c0ff;fill-opacity:1;stroke:#008dcc;stroke-width:0.34026933px;stroke-linecap:butt;stroke-linejoin:miter;stroke-opacity:1"
       d="m 203.49646,204.80091 v -58.86454 c 0,0 173.09104,0 173.09104,0"
       id="path6066"
       inkscape:connector-curvature="0" />
    <path
       inkscape:connector-curvature="0"
       id="path6068"
       d="m 376.38787,145.79137 v 58.86453 c 0,0 -173.09103,0 -173.09103,0"
       style="fill:#00c0ff;fill-opacity:1;stroke:#008dcc;stroke-width:0.34026933px;stroke-linecap:butt;stroke-linejoin:miter;stroke-opacity:1" />
    <path
       inkscape:connector-curvature="0"
       id="path6070"
       d="m 141.14113,145.79143 v 58.86453 c 0,0 -173.090753,0 -173.090753,0"
       style="fill:#00c0ff;fill-opacity:1;stroke:#008dcc;stroke-width:0.34026933px;stroke-linecap:butt;stroke-linejoin:miter;stroke-opacity:1" />
    <path
       style="fill:#00c0ff;fill-opacity:1;stroke:#008dcc;stroke-width:0.34026933px;stroke-linecap:butt;stroke-linejoin:miter;stroke-opacity:1"
       d="m -31.75,204.80097 v -58.86454 c 0,0 173.09074,0 173.09074,0"
       id="path6072"
       inkscape:connector-curvature="0" />
    <path
       style="fill:#00c0ff;fill-opacity:1;stroke:none;stroke-width:0.34536996px;stroke-linecap:butt;stroke-linejoin:miter;stroke-opacity:1"
       d="M -17.587988,147.65087 V 124.79086 H 132.68649 c 0,0 0,0 0,11.43 0,11.43001 0,11.43001 0,11.43001 z"
       id="path6078"
       inkscape:connector-curvature="0" />
    <path
       style="fill:#00c0ff;fill-opacity:1;stroke:none;stroke-width:0.3612777px;stroke-linecap:butt;stroke-linejoin:miter;stroke-opacity:1"
       d="M 212.15098,147.65087 V 124.79086 H 376.5875 c 0,0 0,0 0,11.43 0,11.43001 0,11.43001 0,11.43001 z"
       id="path6078-9"
       inkscape:connector-curvature="0" />
    <rect
       style="fill:#00c0ff;fill-opacity:1;stroke:none;stroke-width:2.24224067;stroke-miterlimit:4;stroke-dasharray:none;stroke-opacity:1"
       id="rect6095"
       width="86.545494"
       height="11.430005"
       x="132.68652"
       y="120.21876" />
    <rect
       style="fill:#00c0ff;fill-opacity:1;stroke:none;stroke-width:1.34036005;stroke-miterlimit:4;stroke-dasharray:none;stroke-opacity:1"
       id="rect6097"
       width="7.7314816"
       height="11.430005"
       x="142.12784"
       y="124.7907" />
    <rect
       style="fill:#00c0ff;fill-opacity:1;stroke:none;stroke-width:1.35318661;stroke-miterlimit:4;stroke-dasharray:none;stroke-opacity:1"
       id="rect6097-2"
       width="7.8801651"
       height="11.430005"
       x="159.43697"
       y="124.7907" />
    <rect
       style="fill:#00c0ff;fill-opacity:1;stroke:none;stroke-width:1.35318661;stroke-miterlimit:4;stroke-dasharray:none;stroke-opacity:1"
       id="rect6097-3"
       width="7.8801651"
       height="11.430005"
       x="176.88235"
       y="124.79086" />
    <rect
       style="fill:#00c0ff;fill-opacity:1;stroke:none;stroke-width:1.37597346;stroke-miterlimit:4;stroke-dasharray:none;stroke-opacity:1"
       id="rect6097-1"
       width="8.1477928"
       height="11.430005"
       x="194.19144"
       y="124.79086" />
    <rect
       style="fill:#5d6c53;fill-opacity:1;stroke:#000000;stroke-width:0.8388797;stroke-miterlimit:4;stroke-dasharray:none;stroke-opacity:1"
       id="rect6126"
       width="14.478559"
       height="5.3329506"
       x="187.76091"
       y="176.60796" />
    <rect
       style="fill:#5d6c53;fill-opacity:1;stroke:#000000;stroke-width:0.8388797;stroke-miterlimit:4;stroke-dasharray:none;stroke-opacity:1"
       id="rect6126-2"
       width="14.478559"
       height="5.3329506"
       x="178.31952"
       y="181.75137" />
    <rect
       y="193.94238"
       x="142.12784"
       height="5.3329506"
       width="14.478559"
       id="rect6143"
       style="fill:#5d6c53;fill-opacity:1;stroke:#000000;stroke-width:0.8388797;stroke-miterlimit:4;stroke-dasharray:none;stroke-opacity:1" />
    <rect
       style="fill:#5d6c53;fill-opacity:1;stroke:#000000;stroke-width:0.8388797;stroke-miterlimit:4;stroke-dasharray:none;stroke-opacity:1"
       id="rect6145"
       width="14.478559"
       height="5.3329506"
       x="150.46579"
       y="169.74988" />
    <path
       style="fill:none;stroke:#000000;stroke-width:0.60444957;stroke-linecap:butt;stroke-linejoin:miter;stroke-miterlimit:4;stroke-dasharray:none;stroke-opacity:1"
       d="m 172.02507,151.6957 c 0,12.52907 0,12.52907 0,12.52907"
       id="path6147"
       inkscape:connector-curvature="0" />
    <path
       inkscape:connector-curvature="0"
       id="path6149"
       d="m 185.44289,158.53174 c -26.76284,0 -26.76284,0 -26.76284,0"
       style="fill:none;stroke:#000000;stroke-width:0.75291967;stroke-linecap:butt;stroke-linejoin:miter;stroke-miterlimit:4;stroke-dasharray:none;stroke-opacity:1" />
    <rect
       style="fill:#55ff55;fill-opacity:1;stroke:none;stroke-width:0.60444957;stroke-miterlimit:4;stroke-dasharray:none;stroke-opacity:1"
       id="rect6159"
       width="31.471094"
       height="80.01004"
       x="187.76091"
       y="227.66092" />
    <rect
       style="fill:#55ff55;fill-opacity:1;stroke:none;stroke-width:0.60444957;stroke-miterlimit:4;stroke-dasharray:none;stroke-opacity:1"
       id="rect6164"
       width="15.735547"
       height="11.430005"
       x="124.81871"
       y="284.81097" />
    <ellipse
       style="fill:#0000ff;fill-opacity:1;stroke:#00fbfb;stroke-width:4.12214565;stroke-miterlimit:4;stroke-dasharray:none;stroke-opacity:0.33165828"
       id="path1009-7"
       cx="76.36985"
       cy="306.02206"
       rx="12.861531"
       ry="10.444423"
       transform="matrix(0.98314883,-0.18280692,0.29577685,0.95525706,0,0)" />
    <ellipse
       transform="matrix(0.98314883,-0.18280692,0.29577685,0.95525706,0,0)"
       ry="10.444423"
       rx="12.861531"
       cy="275.18747"
       cx="86.295021"
       id="ellipse6466"
       style="fill:#0000ff;fill-opacity:1;stroke:#00fbfb;stroke-width:4.12214565;stroke-miterlimit:4;stroke-dasharray:none;stroke-opacity:0.33165828" />
    <g
       id="g1170"
       transform="matrix(0.60138893,0,0,0.54916857,64.359023,145.96627)">
      <g
         style="stroke:#050000;stroke-width:0.69999999;stroke-miterlimit:4;stroke-dasharray:none;stroke-opacity:1"
         transform="translate(22.122638,-24.018115)"
         id="g1063">
        <path
           inkscape:connector-curvature="0"
           style="fill:#000058;fill-opacity:0.65098039;stroke:#050000;stroke-width:2.64566922;stroke-miterlimit:4;stroke-dasharray:none;stroke-opacity:1"
           d="m -369.66602,-166.38086 v 35.4043 h 20.04688 v -35.4043 z m -7.625,36.17188 v 62.124996 h 35.35352 v -62.124996 z m 4.75,62.166011 -25.85937,0.240235 V 0.1328125 h 76.79101 l -1.5664,-68.1757815 h -25.4668 z"
           id="rect1027"
           transform="matrix(0.26458333,0,0,0.26458333,0,141.68957)" />
        <g
           style="stroke:#050000;stroke-width:0.69999999;stroke-miterlimit:4;stroke-dasharray:none;stroke-opacity:1"
           id="g1056">
          <rect
             y="94.870262"
             x="-99.603676"
             height="2.6597505"
             width="9.0853453"
             id="rect1036"
             style="fill:#000058;fill-opacity:0.69411765;stroke:#050000;stroke-width:0.69999999;stroke-miterlimit:4;stroke-dasharray:none;stroke-opacity:1" />
          <rect
             y="90.247009"
             x="-99.603676"
             height="4.6232514"
             width="9.1728725"
             id="rect1040"
             style="fill:#000058;fill-opacity:0.69346732;stroke:#050000;stroke-width:0.69999999;stroke-miterlimit:4;stroke-dasharray:none;stroke-opacity:1" />
          <rect
             y="91.475433"
             x="-97.612343"
             height="2.1733632"
             width="5.3861609"
             id="rect1042"
             style="fill:#000031;fill-opacity:0.7035176;stroke:#050000;stroke-width:0.69999999;stroke-miterlimit:4;stroke-dasharray:none;stroke-opacity:1" />
        </g>
      </g>
      <g
         transform="translate(46.845061,-86.84197)"
         id="g1092">
        <path
           style="fill:#e09b00;fill-opacity:1;stroke:#000000;stroke-width:0.76499999;stroke-miterlimit:4;stroke-dasharray:none;stroke-opacity:1"
           d="m -183.53576,210.88373 39.52683,-26.08036 37.95831,26.08036 v 34.77382 h -77.48514 z"
           id="rect36"
           inkscape:connector-curvature="0"
           inkscape:transform-center-x="0.37797626"
           inkscape:transform-center-y="0.75595241"
           sodipodi:nodetypes="cccccc" />
        <g
           id="g924"
           transform="matrix(1.0148432,0,0,1,1.2690555,0.81826993)">
          <rect
             transform="matrix(0.80948355,0.58714256,-0.04640789,0.99892257,0,0)"
             y="251.37451"
             x="-161.76816"
             height="30.048981"
             width="57.94915"
             id="rect876-3"
             style="fill:#1900e0;fill-opacity:1;stroke:#000000;stroke-width:0.73652869;stroke-miterlimit:4;stroke-dasharray:none;stroke-opacity:1" />
          <path
             inkscape:connector-curvature="0"
             id="path908"
             d="m -144.00893,179.97858 47.247025,34.39583"
             style="fill:none;stroke:#000000;stroke-width:0.89999998;stroke-linecap:butt;stroke-linejoin:miter;stroke-miterlimit:4;stroke-dasharray:none;stroke-opacity:1" />
          <path
             inkscape:connector-curvature="0"
             id="path910"
             d="m -134.18155,187.38403 0.75596,-24.94357"
             style="fill:none;stroke:#000000;stroke-width:0.97700214;stroke-linecap:butt;stroke-linejoin:miter;stroke-miterlimit:4;stroke-dasharray:none;stroke-opacity:1" />
          <path
             inkscape:connector-curvature="0"
             id="path912"
             d="m -124.73214,193.80952 0.75595,-24.56549"
             style="fill:none;stroke:#000000;stroke-width:0.97834396;stroke-linecap:butt;stroke-linejoin:miter;stroke-miterlimit:4;stroke-dasharray:none;stroke-opacity:1" />
          <path
             inkscape:connector-curvature="0"
             id="path914"
             d="M -114.60237,201.06964 V 176.87916"
             style="fill:none;stroke:#000000;stroke-width:0.93736011;stroke-linecap:butt;stroke-linejoin:miter;stroke-miterlimit:4;stroke-dasharray:none;stroke-opacity:1" />
          <path
             inkscape:connector-curvature="0"
             id="path916"
             d="M -105.22858,208.47796 V 183.53154"
             style="fill:none;stroke:#000000;stroke-width:0.99498743;stroke-linecap:butt;stroke-linejoin:miter;stroke-miterlimit:4;stroke-dasharray:none;stroke-opacity:1" />
        </g>
        <g
           id="g961"
           transform="translate(-0.71698578,1.3359406)">
          <rect
             transform="matrix(0.8189131,-0.57391753,-0.02433775,0.99970379,0,0)"
             y="56.669884"
             x="-233.58653"
             height="28.689159"
             width="60.26963"
             id="rect876"
             style="fill:#000be0;fill-opacity:1;stroke:#000000;stroke-width:0.73393816;stroke-miterlimit:4;stroke-dasharray:none;stroke-opacity:1" />
          <path
             inkscape:connector-curvature="0"
             id="path906"
             d="m -193.14583,213.99643 49.1369,-34.01785"
             style="fill:none;stroke:#000000;stroke-width:0.89999998;stroke-linecap:butt;stroke-linejoin:miter;stroke-miterlimit:4;stroke-dasharray:none;stroke-opacity:1" />
          <path
             inkscape:connector-curvature="0"
             id="path926"
             d="m -164.79761,194.19046 c 1.13392,-24.19048 1.13392,-24.19048 1.13392,-24.19048"
             style="fill:none;stroke:#000000;stroke-width:0.89999998;stroke-linecap:butt;stroke-linejoin:miter;stroke-miterlimit:4;stroke-dasharray:none;stroke-opacity:1" />
          <path
             inkscape:connector-curvature="0"
             id="path926-2"
             d="m -154.0253,187.08452 c 1.13392,-24.19048 1.13392,-24.19048 1.13392,-24.19048"
             style="fill:none;stroke:#000000;stroke-width:0.90000004;stroke-linecap:butt;stroke-linejoin:miter;stroke-miterlimit:4;stroke-dasharray:none;stroke-opacity:1" />
          <path
             inkscape:connector-curvature="0"
             id="path926-1"
             d="m -175.19196,201.97679 c 1.13392,-24.19048 1.13392,-24.19048 1.13392,-24.19048"
             style="fill:none;stroke:#000000;stroke-width:0.90000004;stroke-linecap:butt;stroke-linejoin:miter;stroke-miterlimit:4;stroke-dasharray:none;stroke-opacity:1" />
          <path
             inkscape:connector-curvature="0"
             id="path926-4"
             d="m -184.5941,208.76705 c 1.13392,-24.19048 1.13392,-24.19048 1.13392,-24.19048"
             style="fill:none;stroke:#000000;stroke-width:0.90000004;stroke-linecap:butt;stroke-linejoin:miter;stroke-miterlimit:4;stroke-dasharray:none;stroke-opacity:1" />
        </g>
        <path
           style="fill:none;stroke:#000000;stroke-width:0.90742135;stroke-linecap:butt;stroke-linejoin:miter;stroke-miterlimit:4;stroke-dasharray:none;stroke-opacity:1"
           d="m -183.82123,220.27087 78.01092,0.75585"
           id="path963"
           inkscape:connector-curvature="0" />
        <path
           style="fill:none;stroke:#000000;stroke-width:0.90308398;stroke-linecap:butt;stroke-linejoin:miter;stroke-miterlimit:4;stroke-dasharray:none;stroke-opacity:1"
           d="m -184.0744,231.30772 h 78.39763"
           id="path965"
           inkscape:connector-curvature="0" />
        <path
           style="fill:#ffdd55;fill-opacity:1;stroke:#000000;stroke-width:0.4788779;stroke-miterlimit:4;stroke-dasharray:none;stroke-opacity:1"
           d="m -183.7201,225.66917 v -5.49357 l 13.3372,0.26053 c 7.33544,0.14329 24.86569,0.38013 38.95609,0.52634 l 25.61891,0.26577 v 4.96726 4.96724 h -38.95608 -38.95612 z"
           id="path979"
           inkscape:connector-curvature="0" />
        <path
           style="fill:none;stroke:#000000;stroke-width:0.85000002;stroke-linecap:butt;stroke-linejoin:miter;stroke-miterlimit:4;stroke-dasharray:none;stroke-opacity:1"
           d="m -179.53869,209.68749 c 68.2247,0.56696 68.79167,0.75595 68.79167,0.75595"
           id="path1004"
           inkscape:connector-curvature="0" />
        <path
           style="fill:#ffdd55;fill-opacity:1;stroke:#000000;stroke-width:0.50644636;stroke-miterlimit:4;stroke-dasharray:none;stroke-opacity:1"
           d="m -137.76749,220.18752 c -17.15407,-0.18304 -34.50307,-0.34048 -38.55333,-0.34987 l -7.36411,-0.0171 v -3.56149 c 0,-4.05765 -0.22389,-3.52051 2.13133,-5.11326 l 1.45752,-0.98565 21.54935,0.20433 c 11.85214,0.11239 27.63063,0.28604 35.06332,0.38589 l 13.51395,0.18156 2.11983,1.46775 2.11979,1.46774 0.009,3.35454 0.009,3.35454 -0.43317,-0.0281 c -0.23826,-0.0155 -14.46834,-0.17788 -31.62239,-0.36092 z"
           id="path1006"
           inkscape:connector-curvature="0" />
        <rect
           style="fill:#e09b00;fill-opacity:1;stroke:#000000;stroke-width:0.31574354;stroke-miterlimit:4;stroke-dasharray:none;stroke-opacity:1"
           id="rect1008"
           width="13.613422"
           height="13.235446"
           x="-175.29768"
           y="213.8643" />
        <rect
           style="fill:#2c58fc;fill-opacity:1;stroke:#000000;stroke-width:0.30000001;stroke-miterlimit:4;stroke-dasharray:none;stroke-opacity:1"
           id="rect1010"
           width="8.0835047"
           height="7.6153889"
           x="-172.61916"
           y="216.69716" />
        <g
           id="g1025"
           transform="matrix(1.5155704,0,0,1.2428036,207.74829,-34.289575)">
          <path
             sodipodi:nodetypes="ccccc"
             inkscape:connector-curvature="0"
             id="rect1012"
             d="m -231.06759,208.95529 c 5.23399,-7.69607 9.37229,-6.20875 12.97566,0 v 16.0967 h -12.97566 z"
             style="fill:#b48403;fill-opacity:1;stroke:#000000;stroke-width:0.30529237;stroke-miterlimit:4;stroke-dasharray:none;stroke-opacity:1" />
          <ellipse
             ry="3.4252918"
             rx="3.4921091"
             cy="211.07285"
             cx="-224.43959"
             id="path1015"
             style="fill:#4c7ecc;fill-opacity:0.69346732;stroke:#000000;stroke-width:0.40000001;stroke-miterlimit:4;stroke-dasharray:none;stroke-opacity:1" />
          <ellipse
             ry="2.0428174"
             rx="2.009522"
             cy="211.0394"
             cx="-224.4341"
             id="path1017"
             style="fill:#4c96fe;fill-opacity:1;stroke:#000000;stroke-width:0.40000001;stroke-miterlimit:4;stroke-dasharray:none;stroke-opacity:1" />
          <ellipse
             ry="0.86862594"
             rx="0.8018086"
             cy="217.95502"
             cx="-219.56192"
             id="path1019"
             style="fill:#4c7ecc;fill-opacity:0.69346732;stroke:#000000;stroke-width:0.30000001;stroke-miterlimit:4;stroke-dasharray:none;stroke-opacity:1" />
        </g>
      </g>
    </g>
  </g>
</svg>
